#!OML:ASF F:\VICON\USERDATA\INSTALL\rory3\rory3.ASF
:FULLY-SPECIFIED
:DEGREES
9
root 0.5929594891378454 18.17779215771988 -21.755486299282033 -3.600459060467421 -1.614357589594771 -5.098231287687387
lfemur -17.85029700615839 2.9210692965988736 -15.51420713568205
ltibia 69.64558921502841
lfoot -2.0489404384092116 -5.814929294636803
ltoes -5.130742291860031
rfemur -9.609442933162402 5.36778442474516 31.41269335242962
rtibia 27.67310777304753
rfoot -11.319493746162447 -4.595474341487309
rtoes 6.282447271869538
lowerback 10.364307212478233 0.28609165400621306 3.5766239215584585
upperback 0.7932523332928794 0.960212116541052 3.156175183697859
thorax -4.98646044350996 0.42847532479949674 1.1442584867866756
lowerneck -16.794904318579185 -3.201972274275068 -1.9640813942917437
upperneck 22.317190759443097 -3.9541434400303253 0.03067720753006342
head 9.906740302901792 -1.9943214896773938 -0.19079120155621154
lclavicle -9.152774845599273e-16 -7.746724385102027e-16
lhumerus -30.339106184950133 -0.1722707892767592 85.19740233830387
lradius 26.689608164690675
lwrist 5.367898017880071
lhand -27.46170152330997 21.592292384094407
lfingers 7.125020000000057
lthumb -0.8660245229116954 51.57029236229443
rclavicle -9.152774845599273e-16 -7.746724385102027e-16
rhumerus -27.699007541220617 -18.219693065376532 -77.51660785881893
rradius 22.591409421876747
rwrist 7.2632303688516595
rhand -16.67440762851895 12.74711902552513
rfingers 7.125020000000057
rthumb 9.549472370878267 -17.01648102140683
10
root 0.5744527622904263 18.120893482216946 -21.113186577559603 -3.377449692252628 -2.1558361387655074 -5.728929470213426
lfemur -22.482294438738855 2.8518594736037164 -14.831108160119225
ltibia 67.3416901251452
lfoot -5.625417866855969 -3.790311879436145
ltoes -3.8607836349303457
rfemur -8.176013722905077 6.7508411481713395 32.76749126351801
rtibia 28.986807282071027
rfoot -13.806292011123672 -7.417798912523307
rtoes 5.434378047014261
lowerback 10.888305369454384 0.4690184327632855 4.140092482625854
upperback -0.11950862907151855 1.3554184714960122 3.2084647086205154
thorax -6.231894361669973 0.5868778217064208 0.8234387729270529
lowerneck -13.480419963106463 -3.000774040838603 -2.2237372185805198
upperneck 21.32149264872029 -3.7316747342154697 0.25848960806533183
head 8.94846680068805 -1.9039627429640118 0.025145025880821514
lclavicle -9.15277522620951e-16 -7.74672516629834e-16
lhumerus -33.929203663818484 -0.21311774336251643 85.26920224022138
lradius 27.52030796829768
lwrist 6.22625741513238
lhand -26.478204598145222 22.74719132062434
lfingers 7.125020000000057
lthumb 0.08390880155075187 52.7269912973308
rclavicle -9.15277522620951e-16 -7.74672516629834e-16
rhumerus -28.34830704766568 -14.21239546109907 -78.70030676226659
rradius 24.928208860693523
rwrist 4.713372488629434
rhand -16.91750622400228 12.06341979358545
rfingers 7.125020000000057
rthumb 9.31490377515355 -17.71078024117771
11
root 0.5777777132153561 18.04899515587844 -20.45268686372238 -2.8738911188332836 -2.6081949267223576 -6.245667981135449
lfemur -26.15329240398124 2.5240103120814554 -14.286708976549642
ltibia 62.414792071433745
lfoot -7.661596402806026 -1.2918050692431224
ltoes -4.227433247172671
rfemur -6.580614601884509 7.085800354625748 33.67098987044772
rtibia 29.729907004348156
rfoot -16.974589800602732 -8.053317690052793
rtoes 2.611540627119104
lowerback 10.699706032802283 0.916024448493082 5.224129714314331
upperback 0.3022802704121748 2.0228456933325885 2.817288262660561
thorax -5.617787360544873 0.8920599258107342 -0.29468274461389143
lowerneck -15.507010397501098 -3.1419528012588813 -1.776054418088175
upperneck 21.462192381751017 -4.053342862949523 0.5176892433423461
head 9.372033928597089 -1.9773717247726592 -0.03504307833540088
lclavicle -9.152774890486955e-16 -7.746725358287422e-16
lhumerus -33.77040377533507 -1.2597615668768831 85.2574022563408
lradius 27.344208009930902
lwrist 6.2730073823041135
lhand -26.397004852010625 21.042692890184256
lfingers 7.125020000000057
lthumb 0.16230214774170015 51.02229286683328
rclavicle -9.152774890486955e-16 -7.746725358287422e-16
rhumerus -26.31980858959728 -12.5150964758122 -80.31170526950287
rradius 26.921708381954076
rwrist 2.4297143871068716
rhand -19.143893360917485 21.762108898182753
rfingers 7.125020000000057
rthumb 7.166216638547455 -8.096591045266427
12
root 0.5899785331356757 17.978796789967966 -19.80268714533604 -2.480052234578225 -2.929874064820243 -6.881136149915889
lfemur -28.363591178858744 1.909161884562877 -13.455510223090695
ltibia 54.92329503082408
lfoot -8.448255837183387 2.0327406863581228
ltoes -0.7747088986707604
rfemur -4.427805787966795 6.721861216827147 34.40248874257735
rtibia 29.51050708634573
rfoot -18.454588768007635 -7.607938546774717
rtoes 4.605568804555137
lowerback 10.85380549079851 1.0396266233089122 6.106387461288137
upperback 0.37684936867933533 2.3013245341654085 2.7929584837091683
thorax -5.580017544986593 1.0065048398344307 -0.8568504909287048
lowerneck -15.985308139912506 -3.08936326300628 -1.8316035247632172
upperneck 21.255292774330552 -3.930693576447108 0.4325316917089834
head 9.386433830955355 -1.9319323550221488 -0.045590903826606854
lclavicle -9.152775065762557e-16 -7.746724997479978e-16
lhumerus -34.27020342435276 -0.7795831066240702 85.2048023281951
lradius 26.851108126509025
lwrist 5.679427799121042
lhand -27.13730253752101 23.579790553938725
lfingers 7.125020000000057
lthumb -0.5526945373598803 53.5587905314998
rclavicle -9.152775065762557e-16 -7.746724997479978e-16
rhumerus -24.900209668683353 -9.940578014962135 -81.38510427512989
rradius 28.608507976868587
rwrist 0.2773771764130961
rhand -19.50539127234169 22.26790832997313
rfingers 7.125020000000057
rthumb 6.817268727569335 -7.6023316006978625
13
root 0.6087392562342022 17.935497797889283 -19.134687434748116 -1.9142138375975342 -3.57647233233482 -7.611914044043658
lfemur -29.488490555350463 1.0935139705911345 -12.261012014468548
ltibia 44.859499006358064
lfoot -8.844265552445098 5.440466335764785
ltoes 6.9877648919689745
rfemur -1.663447310980148 7.020850508497203 35.26908740640168
rtibia 27.84350770936299
rfoot -19.070788338085315 -7.725628320389152
rtoes 4.99852844538565
lowerback 10.61950631488341 1.4697937514573072 7.1830847117207615
upperback 0.5308565063355937 2.9608517888855643 2.629759966451984
thorax -5.185919469489692 1.3159819031835571 -1.7124500608989743
lowerneck -16.385906249069958 -3.1278629249710095 -1.408120335099602
upperneck 20.998693261212672 -4.060722820017502 0.33580720097719463
head 9.360134009287137 -1.9674518623623365 -0.16950255376684153
lclavicle -9.152775066831395e-16 -7.746725424489836e-16
lhumerus -34.65090315700789 0.21661577359320683 84.57650318648525
lradius 26.591108187977966
lwrist 4.273478786391177
lhand -26.745003764016047 24.53738967214899
lfingers 7.125020000000057
lthumb -0.17382476400198832 54.51708964920131
rclavicle -9.152775066831395e-16 -7.746725424489836e-16
rhumerus -23.494710737051577 -8.763478718679094 -82.11990359442814
rradius 30.162007603795146
rwrist -1.1463326400117642
rhand -19.61229065472412 21.912608729112858
rfingers 7.125020000000057
rthumb 6.714129345026606 -7.960951197693743
14
root 0.6378768261742325 17.86529943197881 -18.431887739237453 -0.9961274385348725 -4.114500890749407 -8.010822894513737
lfemur -29.59969049371465 -0.4795500062809428 -11.052713826542119
ltibia 33.55430347228612
lfoot -8.71625564448659 9.071211700445492
ltoes -6.412460936352704
rfemur 0.7449183621394209 6.948390680160442 35.56398695170722
rtibia 26.420008241375616
rfoot -20.341187451727972 -7.421838904752064
rtoes 3.784649554884476
lowerback 10.026408400947242 1.6978222291095832 7.518453855286827
upperback 0.03825486316071963 3.2836704451540664 2.728759066994026
thorax -5.337298730257823 1.4526106067036275 -1.8245096116612745
lowerneck -15.42991076141513 -3.0323837632984776 -1.726025222643488
upperneck 20.743293745817876 -3.8581539984374476 0.33989017947973665
head 9.100695768465734 -1.9038327447671015 -0.07137887717675906
lclavicle -9.152774796169357e-16 -7.746725239121745e-16
lhumerus -36.00080220904665 1.830384959627252 84.19300371036601
lradius 25.509808443617615
lwrist 4.724928469379135
lhand -27.05650279013584 22.112391905169147
lfingers 7.125020000000057
lthumb -0.4746777899496467 52.09159188233808
rclavicle -9.152774796169357e-16 -7.746725239121745e-16
rhumerus -23.297510886949976 -6.842969866835979 -82.37800335533028
rradius 30.815807446784877
rwrist -1.2416525607692916
rhand -19.59039078125194 23.24430723309714
rfingers 7.125020000000057
rthumb 6.735289218350286 -6.6285826949627324
15
root 0.6672043933099718 17.802200900797168 -17.72028804753933 -0.3530262604395148 -5.37134752317394 -8.959750160003557
lfemur -28.0431913564497 -3.1148052665874637 -8.169658150233909
ltibia 21.55090821402627
lfoot -7.230396712846575 11.619678446855392
ltoes -1.4394361956750235
rfemur 3.854009649196774 7.288259874982671 36.44868558762391
rtibia 24.358709011756734
rfoot -20.477287356771072 -7.2961391465454675
rtoes 0.12967389557293263
lowerback 9.584999953483813 2.1834989866684866 8.56935117160488
upperback 0.1216454547532606 3.9918974971614882 2.7530788460362716
thorax -4.874670989412527 1.7942873645074564 -2.445817120889544
lowerneck -16.141207404060406 -3.10623311488537 -1.736115060381583
upperneck 21.1102930494588 -3.9826132744104634 0.4811404357770219
head 9.364153982028817 -1.9415822211773524 -0.05241479092861395
lclavicle -9.152774632517188e-16 -7.746725004100801e-16
lhumerus -36.303701996336486 3.2433033714286976 83.4807046834045
lradius 24.624908652824566
lwrist 3.8174591066123114
lhand -26.328105067421042 20.922493000868364
lfingers 7.125020000000057
lthumb 0.22885193227777245 50.902192977408305
rclavicle -9.152774632517188e-16 -7.746725004100801e-16
rhumerus -21.9645119002084 -6.264290212793785 -82.78250298061081
rradius 30.786707453773225
rwrist -1.202662593182887
rhand -20.1259876868088 22.76330777344673
rfingers 7.125020000000057
rthumb 6.218192314017889 -7.125452136598284
